<?xml version="1.0" encoding="UTF-8" standalone="no"?>
<svg
   xmlns:dc="http://purl.org/dc/elements/1.1/"
   xmlns:cc="http://creativecommons.org/ns#"
   xmlns:rdf="http://www.w3.org/1999/02/22-rdf-syntax-ns#"
   xmlns:svg="http://www.w3.org/2000/svg"
   xmlns="http://www.w3.org/2000/svg"
   xmlns:xlink="http://www.w3.org/1999/xlink"
   xmlns:sodipodi="http://sodipodi.sourceforge.net/DTD/sodipodi-0.dtd"
   xmlns:inkscape="http://www.inkscape.org/namespaces/inkscape"
   height="512pt"
   viewBox="0 -62 512 512"
   width="512pt"
   version="1.1"
   id="svg40"
   sodipodi:docname="sinapsTVfav.svg"
   inkscape:version="0.92.3 (2405546, 2018-03-11)">
  <metadata
     id="metadata46">
    <rdf:RDF>
      <cc:Work
         rdf:about="">
        <dc:format>image/svg+xml</dc:format>
        <dc:type
           rdf:resource="http://purl.org/dc/dcmitype/StillImage" />
        <dc:title></dc:title>
      </cc:Work>
    </rdf:RDF>
  </metadata>
  <defs
     id="defs44">
    <linearGradient
       inkscape:collect="always"
       xlink:href="#linearGradient6885"
       id="linearGradient6887"
       x1="17"
       y1="20"
       x2="27"
       y2="20"
       gradientUnits="userSpaceOnUse" />
    <linearGradient
       inkscape:collect="always"
       id="linearGradient6885">
      <stop
         style="stop-color:#000000;stop-opacity:1;"
         offset="0"
         id="stop6881" />
      <stop
         style="stop-color:#000000;stop-opacity:0;"
         offset="1"
         id="stop6883" />
    </linearGradient>
    <linearGradient
       inkscape:collect="always"
       xlink:href="#linearGradient6885"
       id="linearGradient6899"
       x1="34.895737"
       y1="32.109005"
       x2="43.156399"
       y2="32.109005"
       gradientUnits="userSpaceOnUse"
       gradientTransform="matrix(9.6499677,0,0,9.6499677,-36.710217,-150.8341)" />
    <linearGradient
       inkscape:collect="always"
       xlink:href="#linearGradient6885"
       id="linearGradient6893"
       x1="27"
       y1="32"
       x2="37"
       y2="32"
       gradientUnits="userSpaceOnUse" />
    <linearGradient
       inkscape:collect="always"
       xlink:href="#linearGradient6885"
       id="linearGradient6897"
       x1="21.57583"
       y1="32"
       x2="29.836493"
       y2="32"
       gradientUnits="userSpaceOnUse"
       gradientTransform="matrix(9.6499677,0,0,9.6499677,-44.210217,-150.8341)" />
    <linearGradient
       gradientTransform="matrix(9.6499677,0,0,9.6499677,-84.693997,-35.034465)"
       inkscape:collect="always"
       xlink:href="#linearGradient6885"
       id="linearGradient6931"
       gradientUnits="userSpaceOnUse"
       x1="17"
       y1="20"
       x2="27"
       y2="20" />
    <linearGradient
       inkscape:collect="always"
       xlink:href="#linearGradient6885"
       id="linearGradient965"
       gradientUnits="userSpaceOnUse"
       x1="17"
       y1="20"
       x2="27"
       y2="20" />
    <linearGradient
       inkscape:collect="always"
       xlink:href="#linearGradient6885"
       id="linearGradient967"
       gradientUnits="userSpaceOnUse"
       x1="27"
       y1="32"
       x2="37"
       y2="32" />
  </defs>
  <sodipodi:namedview
     pagecolor="#ffffff"
     bordercolor="#666666"
     borderopacity="1"
     objecttolerance="10"
     gridtolerance="10"
     guidetolerance="10"
     inkscape:pageopacity="0"
     inkscape:pageshadow="2"
     inkscape:window-width="1881"
     inkscape:window-height="1025"
     id="namedview42"
     showgrid="false"
     inkscape:zoom="0.9777961"
     inkscape:cx="299.95188"
     inkscape:cy="268.65479"
     inkscape:window-x="0"
     inkscape:window-y="27"
     inkscape:window-maximized="1"
     inkscape:current-layer="svg40" />
  <path
     style="fill:#e6e6e6;fill-rule:evenodd"
     inkscape:connector-curvature="0"
     id="path2"
     d="m 256.01562,389 h 121.50782 c 3.44922,0 6.25,-1.95313 6.25,-4.3125 v -23.99219 c 0,-2.36328 -2.94922,-3.38281 -6.25,-4.3164 -16.17578,-4.51953 -36.64844,-7.8711 -59.10157,-10 h -124.8125 c -22.45703,2.1289 -42.92578,5.48047 -59.10546,10 -3.30079,0.93359 -6.2461,1.95312 -6.2461,4.3164 v 23.99219 c 0,2.35937 2.80078,4.3125 6.2461,4.3125 z m 0,0" />
  <path
     style="fill:#b3b3b3;fill-rule:evenodd"
     inkscape:connector-curvature="0"
     id="path4"
     d="m 198.45703,356.11719 h 115.11328 c 2.66016,0 4.85156,-2.1875 4.85156,-4.83985 v -26.5 l -62.49218,-16.61718 -62.32032,16.55859 v 26.55859 c 0,2.65235 2.19141,4.83985 4.84766,4.83985 z m 0,0" />
  <path
     style="fill:#616d80;fill-rule:evenodd"
     inkscape:connector-curvature="0"
     id="path6"
     d="m 193.60937,324.71875 c 41.61329,-1.04688 83.19922,-1.04688 124.8125,0.0586 51.77344,1.33985 103.51954,4.34375 155.17969,8.98047 C 494.24609,335.59375 512,318.83203 512,298.25 V 35.648438 c 0,-20.582032 -17.75391,-37.34375 -38.40234,-35.507813 -144.8125,12.972656 -290.35547,13.207031 -435.136722,0 C 17.753906,-1.722656 0,15.039062 0,35.648438 V 298.25 c 0,20.60937 17.753906,37.375 38.460938,35.50781 51.628906,-4.72265 103.375002,-7.72656 155.148432,-9.03906 z m 0,0" />
  <path
     style="fill:#bae0f2;fill-rule:evenodd"
     inkscape:connector-curvature="0"
     id="path8"
     d="m 35.683594,303.4375 c 144.230466,-13.14453 291.058596,-13.37891 440.632816,0 2.83203,0.26172 5.19531,-2.33203 5.19531,-5.1875 V 35.648438 c 0,-2.855469 -2.36328,-5.449219 -5.19531,-5.1875 -149.57422,13.382812 -296.40235,13.148437 -440.632816,0 -2.859375,-0.261719 -5.195313,2.332031 -5.195313,5.1875 V 298.25 c 0,2.85547 2.335938,5.44922 5.195313,5.1875 z m 0,0" />
  <path
     style="fill:#3f4c63;fill-rule:evenodd"
     inkscape:connector-curvature="0"
     id="path16"
     d="m 30.488281,166.94922 c 0,-63.19922 0,-105.414064 0,-131.300782 0,-51.015626 0,-38.59375 0,1.839843 z m 0,133.10937 c 0,133.22266 0,-158.15234 0,-262.574215 v -1.835937 c 0,-0.378907 0.02734,-0.757813 0.117188,-1.136719 C 31.976562,17.835938 45,4.253906 61.296875,2.125 53.671875,1.511719 46.050781,0.839844 38.460938,0.140625 17.753906,-1.722656 0,15.039062 0,35.648438 V 298.25 c 0,17.89844 13.402344,32.91406 30.488281,35.30469 2.570313,0.34765 5.226563,0.43359 7.972657,0.20312 4.320312,-0.41015 8.640624,-0.78906 12.964843,-1.16797 -12.265625,-5.59765 -20.9375,-18.13281 -20.9375,-32.53125 z m 0,0" />
  <path
     style="fill:#93baf0;fill-rule:evenodd"
     inkscape:connector-curvature="0"
     id="path18"
     d="M 62.40625,298.25 V 35.648438 c 0,-0.960938 0.02734,-1.953126 0.117188,-2.886719 -8.964844,-0.726563 -17.902344,-1.484375 -26.839844,-2.300781 -2.480469,-0.234376 -4.582032,1.691406 -5.078125,4.050781 -0.08984,0.378906 -0.117188,0.757812 -0.117188,1.136719 V 166.94922 298.25 c 0,2.85547 2.335938,5.44922 5.195313,5.1875 8.9375,-0.81641 17.875,-1.57422 26.839844,-2.30078 -0.08984,-0.96094 -0.117188,-1.92578 -0.117188,-2.88672 z m 0,0" />
  <path
     style="fill:#888b99;fill-rule:evenodd"
     inkscape:connector-curvature="0"
     id="path20"
     d="m 217.96484,346.37891 v -22.15235 c -8.11718,0.11719 -16.23828,0.28906 -24.35547,0.4961 v 26.55468 c 0,2.65625 2.19141,4.83985 4.84766,4.83985 h 24.32422 c -2.65625,0 -4.81641,-2.1836 -4.81641,-4.83985 z m 0,0" />
  <path
     style="fill:#b3b3b3;fill-rule:evenodd"
     inkscape:connector-curvature="0"
     id="path22"
     d="m 134.50391,356.37891 c -3.30079,0.93359 -6.2461,1.95312 -6.2461,4.3164 v 23.99219 c 0,2.35937 2.80078,4.3125 6.2461,4.3125 h 35.94921 c -3.44531,0 -6.27734,-1.95313 -6.27734,-4.3125 v -23.99219 c 0,-2.36328 2.97656,-3.38281 6.27734,-4.3164 6.98047,-1.95313 14.7461,-3.67188 23.15625,-5.1875 v -4.8125 c -22.45703,2.1289 -42.92578,5.48046 -59.10546,10 z m 0,0" />
  <g
     id="g987"
     transform="translate(-3.0681197,3.0681242)">
    <g
       style="fill:#00a4cc;fill-opacity:1;stroke:url(#linearGradient6887)"
       id="g3834-7-3"
       transform="matrix(9.6499677,0,0,9.6499677,191.47487,-34.689165)">
      <rect
         style="fill:#00a4cc;fill-opacity:1;stroke:url(#linearGradient965)"
         id="rect3832-5-5"
         height="2"
         width="10"
         y="19"
         x="17" />
    </g>
    <path
       style="fill:#00a4cc;fill-opacity:1;stroke:url(#linearGradient6899);stroke-width:16.9709301"
       inkscape:connector-curvature="0"
       d="m 300.0325,213.21208 v 36.13024 c 43.95493,0 79.71515,-40.52004 79.71515,-90.32553 0,-49.8055 -35.76022,-90.325545 -79.71515,-90.325545 v 36.130235 c 26.36978,0 47.82907,24.31562 47.82907,54.19531 0,29.87969 -21.45929,54.19529 -47.82907,54.19529 z"
       id="path3802-3" />
    <path
       style="fill:#00a4cc;fill-opacity:1;stroke:url(#linearGradient6897);stroke-width:16.9709301"
       inkscape:connector-curvature="0"
       d="m 243.71098,212.16021 v 36.13023 c -43.95491,0 -79.71512,-40.52006 -79.71512,-90.32554 0,-49.8055 35.76021,-90.325535 79.71512,-90.325535 v 36.130215 c -26.36976,0 -47.82906,24.31564 -47.82906,54.19532 0,29.87969 21.4593,54.19531 47.82906,54.19531 z"
       id="path3802-3-6" />
    <rect
       style="fill:#00a4cc;fill-opacity:1;stroke:url(#linearGradient6931);stroke-width:9.64996719"
       id="rect3832-5"
       height="19.299934"
       width="96.49968"
       y="148.31494"
       x="79.355461" />
    <g
       transform="matrix(4.6194864,0,0,4.6194864,118.90863,10.784735)"
       style="fill:#00a4cc;fill-opacity:1;stroke:url(#linearGradient6893)"
       id="g3830">
      <path
         inkscape:connector-curvature="0"
         style="fill:#00a4cc;fill-opacity:1;stroke:url(#linearGradient967)"
         id="path3828"
         d="m 32,37 c -2.757,0 -5,-2.243 -5,-5 0,-2.757 2.243,-5 5,-5 2.757,0 5,2.243 5,5 0,2.757 -2.243,5 -5,5 z m 0,-8 c -1.654,0 -3,1.346 -3,3 0,1.654 1.346,3 3,3 1.654,0 3,-1.346 3,-3 0,-1.654 -1.346,-3 -3,-3 z" />
    </g>
  </g>
</svg>
