<svg height="512pt" viewBox="0 -62 512 512" width="512pt" xmlns="http://www.w3.org/2000/svg"><g fill-rule="evenodd"><path d="m256.015625 389h121.507813c3.449218 0 6.25-1.953125 6.25-4.3125v-23.992188c0-2.363281-2.949219-3.382812-6.25-4.316406-16.175782-4.519531-36.648438-7.871094-59.101563-10h-124.8125c-22.457031 2.128906-42.925781 5.480469-59.105469 10-3.300781.933594-6.246094 1.953125-6.246094 4.316406v23.992188c0 2.359375 2.800782 4.3125 6.246094 4.3125zm0 0" fill="#e6e6e6"/><path d="m198.457031 356.117188h115.113281c2.660157 0 4.851563-2.1875 4.851563-4.839844v-26.5l-62.492187-16.617188-62.320313 16.558594v26.558594c0 2.652344 2.191406 4.839844 4.847656 4.839844zm0 0" fill="#b3b3b3"/><path d="m193.609375 324.71875c41.613281-1.046875 83.199219-1.046875 124.8125.058594 51.773437 1.339844 103.519531 4.34375 155.179687 8.980468 20.644532 1.835938 38.398438-14.925781 38.398438-35.507812v-262.601562c0-20.582032-17.753906-37.34375-38.402344-35.507813-144.8125 12.972656-290.355468 13.207031-435.136718 0-20.707032-1.863281-38.460938 14.898437-38.460938 35.507813v262.601562c0 20.609375 17.753906 37.375 38.460938 35.507812 51.628906-4.722656 103.375-7.726562 155.148437-9.039062zm0 0" fill="#616d80"/><path d="m35.683594 303.4375c144.230468-13.144531 291.058594-13.378906 440.632812 0 2.832032.261719 5.195313-2.332031 5.195313-5.1875v-262.601562c0-2.855469-2.363281-5.449219-5.195313-5.1875-149.574218 13.382812-296.402344 13.148437-440.632812 0-2.859375-.261719-5.195313 2.332031-5.195313 5.1875v262.601562c0 2.855469 2.335938 5.449219 5.195313 5.1875zm0 0" fill="#bae0f2"/><path d="m200.355469 223.824219v-20.8125c0-3.148438-2.570313-5.714844-5.695313-5.714844h-20.878906c-3.152344 0-5.691406 2.566406-5.691406 5.714844v20.8125c0 3.148437 2.539062 5.714843 5.691406 5.714843h20.878906c3.125 0 5.695313-2.566406 5.695313-5.714843zm0 0" fill="#eb5757"/><path d="m266.410156 229.539062c3.15625 0 5.726563-2.566406 5.726563-5.714843v-20.8125c0-3.148438-2.570313-5.714844-5.726563-5.714844h-20.847656c-3.15625 0-5.726562 2.566406-5.726562 5.714844v20.8125c0 3.148437 2.570312 5.714843 5.726562 5.714843zm0 0" fill="#e8c745"/><path d="m317.339844 229.539062h20.847656c3.15625 0 5.726562-2.566406 5.726562-5.714843v-20.8125c0-3.148438-2.570312-5.714844-5.726562-5.714844h-20.847656c-3.15625 0-5.726563 2.566406-5.726563 5.714844v20.8125c0 3.148437 2.570313 5.714843 5.726563 5.714843zm0 0" fill="#55cf63"/><path d="m30.488281 166.949219c0-63.199219 0-105.414063 0-131.300781 0-51.015626 0-38.59375 0 1.839843zm0 133.109375c0 133.222656 0-158.152344 0-262.574219v-1.835937c0-.378907.027344-.757813.117188-1.136719 1.371093-16.675781 14.394531-30.257813 30.691406-32.386719-7.625-.613281-15.246094-1.285156-22.835937-1.984375-20.707032-1.863281-38.460938 14.898437-38.460938 35.507813v262.601562c0 17.898438 13.402344 32.914062 30.488281 35.304688 2.570313.347656 5.226563.433593 7.972657.203124 4.320312-.410156 8.640624-.789062 12.964843-1.167968-12.265625-5.597656-20.9375-18.132813-20.9375-32.53125zm0 0" fill="#3f4c63"/><path d="m62.40625 298.25v-262.601562c0-.960938.027344-1.953126.117188-2.886719-8.964844-.726563-17.902344-1.484375-26.839844-2.300781-2.480469-.234376-4.582032 1.691406-5.078125 4.050781-.089844.378906-.117188.757812-.117188 1.136719v131.300781 131.300781c0 2.855469 2.335938 5.449219 5.195313 5.1875 8.9375-.816406 17.875-1.574219 26.839844-2.300781-.089844-.960938-.117188-1.925781-.117188-2.886719zm0 0" fill="#93baf0"/><path d="m217.964844 346.378906v-22.152344c-8.117188.117188-16.238282.289063-24.355469.496094v26.554688c0 2.65625 2.191406 4.839844 4.847656 4.839844h24.324219c-2.65625 0-4.816406-2.183594-4.816406-4.839844zm0 0" fill="#888b99"/><path d="m134.503906 356.378906c-3.300781.933594-6.246094 1.953125-6.246094 4.316406v23.992188c0 2.359375 2.800782 4.3125 6.246094 4.3125h35.949219c-3.445313 0-6.277344-1.953125-6.277344-4.3125v-23.992188c0-2.363281 2.976563-3.382812 6.277344-4.316406 6.980469-1.953125 14.746094-3.671875 23.15625-5.1875v-4.8125c-22.457031 2.128906-42.925781 5.480469-59.105469 10zm0 0" fill="#b3b3b3"/></g><path d="m310.273438 157.242188c1.285156 1.136718 2.65625 1.71875 4.175781 1.71875s2.859375-.582032 3.972656-1.71875c1.109375-1.136719 1.664063-2.476563 1.664063-4.023438v-35.59375h7.621093c1.402344 0 2.628907-.523438 3.648438-1.542969 1.023437-1.023437 1.546875-2.21875 1.546875-3.644531 0-1.488281-.523438-2.742188-1.546875-3.761719-1.019531-1.050781-2.25-1.574219-3.648438-1.574219h-26.777343c-1.402344 0-2.628907.523438-3.621094 1.574219-.996094 1.019531-1.492188 2.246094-1.492188 3.613281 0 1.515626.527344 2.769532 1.578125 3.761719 1.023438.992188 2.191407 1.488281 3.476563 1.488281h7.679687v35.679688c0 1.546875.582031 2.886719 1.722657 4.023438zm0 0" fill="#3f4c63"/><path d="m431.605469 109.667969-10.746094 29.03125-10.746094-29.03125c-.992187-2.507813-2.773437-3.761719-5.34375-3.761719-1.605469 0-3.007812.554688-4.175781 1.660156-1.136719 1.109375-1.722656 2.421875-1.722656 3.9375 0 .523438.03125.988282.117187 1.425782.117188.410156.234375.847656.378907 1.285156l15.800781 39.558594c.785156 1.835937 1.574219 3.089843 2.335937 3.703124.757813.609376 1.957032.902344 3.5625.902344 2.421875 0 4.234375-1.515625 5.488282-4.605468l15.800781-39.558594c.320312-.875.496093-1.75.496093-2.710938 0-1.546875-.585937-2.886718-1.722656-3.964844-1.140625-1.109374-2.542968-1.632812-4.207031-1.632812-2.601563 0-4.382813 1.253906-5.316406 3.761719zm0 0" fill="#3f4c63"/><path d="m368.910156 155.84375c1.285156 1.136719 2.65625 1.691406 4.175782 1.691406 1.519531 0 2.863281-.554687 3.972656-1.691406s1.664062-2.507812 1.664062-4.050781v-35.597657h7.621094c1.402344 0 2.628906-.523437 3.648438-1.515624 1.023437-1.019532 1.550781-2.246094 1.550781-3.671876 0-1.457031-.527344-2.710937-1.550781-3.761718-1.019532-1.050782-2.246094-1.574219-3.648438-1.574219h-26.777344c-1.402344 0-2.628906.523437-3.621094 1.574219-.992187 1.050781-1.488281 2.246094-1.488281 3.613281 0 1.519531.523438 2.769531 1.574219 3.761719 1.023438.992187 2.191406 1.515625 3.476562 1.515625h7.679688v35.65625c0 1.542969.582031 2.914062 1.722656 4.050781zm0 0" fill="#3f4c63"/><path d="m287.84375 155.902344c1.140625-1.226563 1.722656-2.59375 1.722656-4.109375 0-1.371094-.496094-2.625-1.515625-3.703125l-11.363281-12.417969c2.921875-.585937 5.113281-1.34375 6.542969-2.277344 3.796875-2.621093 5.695312-6.527343 5.695312-11.71875 0-4.691406-1.695312-8.511719-5.023437-11.484375-3.359375-2.972656-7.59375-4.429687-12.703125-4.429687h-13.230469c-1.664062 0-3.066406.550781-4.203125 1.6875-1.140625 1.140625-1.726563 2.566406-1.726563 4.257812v39.9375c0 1.664063.585938 3.0625 1.726563 4.199219 1.285156 1.136719 2.683594 1.691406 4.203125 1.691406 1.605469 0 2.949219-.527344 4.058594-1.632812 1.082031-1.082032 1.636718-2.449219 1.636718-4.054688v-15.535156l15.417969 18.800781c1.34375 1.632813 2.863281 2.421875 4.554688 2.421875 1.636719 0 3.011719-.527344 4.207031-1.632812zm-16.585938-28.046875h-7.535156v-11.601563h7.390625c1.808594 0 3.296875.585938 4.4375 1.722656 1.226563 1.078126 1.839844 2.417969 1.839844 3.964844 0 1.632813-.613281 3-1.8125 4.167969-1.226563 1.164063-2.65625 1.746094-4.320313 1.746094zm0 0" fill="#3f4c63"/><path d="m102.96875 148.175781c-1.316406.992188-2.949219 1.488281-4.90625 1.488281s-4.441406-.554687-7.476562-1.632812c-2.511719-.90625-4.207032-1.371094-5.054688-1.371094-1.429688 0-2.597656.523438-3.5625 1.574219-.933594 1.046875-1.429688 2.332031-1.429688 3.90625v.347656c0 2.332031 1.636719 4.257813 4.847657 5.773438 3.242187 1.515625 7.269531 2.273437 12.089843 2.273437 5.929688 0 10.6875-1.574218 14.28125-4.722656 3.589844-3.175781 5.371094-7.257812 5.371094-12.273438 0-5.332031-2.101562-9.296874-6.335937-11.863281-2.21875-1.429687-5.605469-2.742187-10.105469-3.964843-3.472656-.992188-5.546875-1.75-6.246094-2.273438-.996094-.816406-1.519531-1.691406-1.519531-2.625 0-1.253906.585937-2.273438 1.695313-3.089844 1.109374-.84375 2.480468-1.253906 4.085937-1.253906.9375 0 2.308594.234375 4.058594.699219l2.046875.730469c1.722656.554687 2.976562.84375 3.792968.84375 1.402344 0 2.601563-.523438 3.59375-1.601563.964844-1.050781 1.460938-2.332031 1.460938-3.789063 0-2.1875-1.34375-3.996093-4.03125-5.453124-2.6875-1.425782-6.015625-2.15625-9.988281-2.15625-5.460938 0-9.984375 1.515624-13.519531 4.546874-3.5625 3.03125-5.34375 6.882813-5.34375 11.574219 0 4.636719 1.75 8.105469 5.253906 10.378907 1.8125 1.195312 5.140625 2.449218 9.960937 3.847656 3.125.933594 5.226563 1.632812 6.277344 2.128906 1.019531.464844 1.75 1.019531 2.132813 1.6875.378906.671875.554687 1.457031.554687 2.363281 0 1.605469-.644531 2.886719-1.984375 3.90625zm0 0" fill="#3f4c63"/><path d="m228.914062 148.671875 2.074219 6.441406c.90625 2.625 2.65625 3.90625 5.253907 3.90625 1.578124 0 2.894531-.464843 4.003906-1.398437 1.136718-1.109375 1.691406-2.273438 1.691406-3.5 0-1.222656-.171875-2.359375-.554688-3.410156l-13.957031-37.867188c-1.546875-4.257812-4.320312-6.382812-8.324219-6.382812-4.027343 0-6.832031 2.125-8.378906 6.382812l-14.164062 37.808594c-.347656.847656-.496094 1.808594-.496094 2.828125 0 1.574219.527344 2.886719 1.636719 3.996093 1.078125 1.078126 2.421875 1.628907 4.027343 1.628907 2.921876 0 4.761719-1.339844 5.578126-3.992188l1.898437-6.441406zm-9.8125-30.289063 6.339844 19.96875-12.96875-.058593zm0 0" fill="#3f4c63"/><path d="m162.597656 155.054688 8.554688-29.066407 4.117187 28.222657c.554688 3.640624 2.511719 5.449218 5.839844 5.449218 1.664063 0 3.039063-.554687 4.117187-1.660156 1.082032-1.109375 1.636719-2.535156 1.636719-4.285156l-.148437-1.136719-6.597656-39.238281c-.351563-1.75-1.226563-3.207032-2.6875-4.347656-1.433594-1.164063-3.09375-1.746094-4.9375-1.746094-3.941407 0-6.480469 1.921875-7.621094 5.742187l-8.175782 27.082031-8.03125-27.082031c-1.257812-3.820312-3.796874-5.742187-7.621093-5.742187-1.898438 0-3.59375.582031-5.054688 1.777344-1.488281 1.164062-2.363281 2.625-2.625 4.3125l-6.628906 39.238281c-.089844.234375-.148437.613281-.148437 1.140625 0 1.6875.554687 3.117187 1.636718 4.253906 1.109375 1.136719 2.480469 1.691406 4.203125 1.691406 3.332031 0 5.226563-1.808594 5.753907-5.453125l4.058593-28.21875 8.558594 29.066407c.992187 3.089843 2.945313 4.605468 5.898437 4.605468 1.75 0 3.035157-.320312 3.882813-.992187.820313-.667969 1.492187-1.863281 2.019531-3.613281zm0 0" fill="#3f4c63"/></svg>